<svg fill="none" height="503" viewBox="0 0 348 503" width="348" xmlns="http://www.w3.org/2000/svg" xmlns:xlink="http://www.w3.org/1999/xlink"><mask id="a" fill="#fff"><path clip-rule="evenodd" d="m-2.7275 414.271c-39.3627 0-71.2725-31.909-71.2725-71.272s31.9098-71.273 71.2725-71.273c18.8378 0 35.9687 7.309 48.712 19.245 12.7055-35.87 46.9279-61.563 87.1515-61.563 28.235 0 53.514 12.661 70.468 32.614 14.169-10.686 31.803-17.023 50.918-17.023 46.743 0 84.636 37.893 84.636 84.636 0 46.744-37.893 84.636-84.636 84.636h-121.386z" fill="#fff" fill-rule="evenodd"/></mask><path d="m228.351 115.261c9.8-2.227 10.023-12.436 8.909-17.2613 4.269.3712 14.923 1.4477 23.387 2.7843-1.337 11.582 2.784 11.879 5.011 10.579l-16.704 23.387c-5.383-4.641-17.039-15.034-20.603-19.489z" fill="#fedea3"/><circle cx="253.965" cy="67.3748" fill="#302f41" r="30.6249"/><circle cx="250.624" cy="81.852" fill="#fedea3" r="22.8295"/><path clip-rule="evenodd" d="m282.256 24.5148c1.481-2.4402 2.334-5.3041 2.334-8.3671 0-8.91814-7.23-16.1477-16.148-16.1477s-16.148 7.22956-16.148 16.1477c0 .1985.004.3962.011.5929-12.859 3.6321-22.283 15.4531-22.283 29.4752 0 16.9136 13.711 30.6249 30.625 30.6249 16.913 0 30.625-13.7113 30.625-30.6249 0-8.4803-3.447-16.1554-9.016-21.701z" fill="#302f41" fill-rule="evenodd"/><path d="m286.13 223.283-6.681-30.625-57.353-3.897-9.465 11.136-7.239 13.364c-3.155-.557-13.92-4.455-31.739-15.591-22.272-13.921-40.647-11.136-42.874 0-2.228 11.136-4.455 16.148 38.977 44.545 43.431 28.398 109.693 20.046 125.84 20.046 12.918 0 8.353 8.166 4.455 12.25 3.898 16.333 12.918 47.218 17.818 40.09 6.125-8.909 27.841-42.318 29.511-66.818 1.337-19.6-40.276-24.5-61.25-24.5z" fill="#3d3c54"/><path d="m162.09 199.34c4.826 2.228 16.036 7.128 22.273 8.909 7.795 2.228 27.284 12.25 36.75 22.273" stroke="#33384c"/><path d="m274.037 244.442c-11.136-.445-41.39-9.465-55.125-13.92-11.879 5.383-30.402 16.704-9.466 18.932 26.171 2.784 95.216 30.068 94.102 17.818-1.113-12.25-15.591-22.273-29.511-22.83z" fill="#eec68e"/><path d="m300.181 145.886c.742 15.405 1.781 46.884 0 49.557-2.228 3.34-13.364 25.613-21.716 31.181-6.682 4.455-8.724 14.106-8.909 18.375-2.992 1.197-7.849 2.522-12.255 2.387.812 3.364.522 5.965-4.45 5.965-7.127 0-14.848-10.393-17.818-15.59-2.042-3.341-7.461-11.025-12.807-15.034-6.681-5.012-16.704-13.921-17.818-28.955-1.113-15.034-1.67-25.057 0-35.636 1.337-8.464 9.466-3.527 13.364 0-.186 12.435 1.113 38.643 7.795 43.988 6.495 5.196 20.396 20.828 26.52 30.405 4.778-4.443 12.091-8.605 14.685-13.143 4.454-7.796 11.693-21.716 16.704-25.614v-40.091l16.148-8.352z" fill="#f3cf9b"/><path d="m248.397 132.522-20.603-18.931c-2.412 2.227-9.02 7.127-16.147 8.909-8.909 2.227-13.364 10.022-13.364 17.818.557 7.795-2.227 17.818-2.784 23.386 1.782.891 7.053-1.485 9.466-2.784 2.97-.928 9.8-2.227 13.364 0-1.337 11.582 1.113 30.068 4.454 37.307 3.898-1.3 14.589-3.119 28.398 0 13.809 3.118 23.943 1.484 28.954-1.114l3.341-3.341v-40.091l18.932-7.238c-.557-.557-2.116-4.9-3.898-17.818-1.782-12.919-12.25-17.262-17.261-17.819l-17.818-1.113z" fill="#302f41"/><path d="m-3.28431 438.215c-5.01135 8.909-12.02719 26.727 0 26.727 12.02723 0 5.01135-17.818 0-26.727z" fill="#7bf5f6"/><path clip-rule="evenodd" d="m254.47 423.18h-121.334-135.8635c-39.3627 0-71.2725-31.909-71.2725-71.272s31.9098-71.273 71.2725-71.273c18.8378 0 35.9687 7.309 48.712 19.245 12.7055-35.87 46.9279-61.563 87.1515-61.563 28.235 0 53.514 12.661 70.468 32.615 14.169-10.687 31.803-17.024 50.918-17.024 46.743 0 84.636 37.893 84.636 84.636 0 46.744-37.893 84.637-84.636 84.637-.017 0-.035-.001-.052-.001z" fill="#7bf5f6" fill-rule="evenodd"/><path d="m-2.7275 414.271v-1zm48.712-123.3-.6836.729 1.1158 1.046.5104-1.441zm157.6195-28.949-.762.648.611.719.753-.568zm-70.468 152.249v1zm-135.8635-1c-38.8104 0-70.2725-31.462-70.2725-70.272h-2c0 39.915 32.3575 72.272 72.2725 72.272zm-70.2725-70.272c0-38.811 31.4621-70.273 70.2725-70.273v-2c-39.915 0-72.2725 32.358-72.2725 72.273zm70.2725-70.273c18.574 0 35.463 7.205 48.0284 18.974l1.3672-1.459c-12.9212-12.103-30.294-19.515-49.3956-19.515zm49.6546 18.579c12.5685-35.483 46.4221-60.897 86.2089-60.897v-2c-40.6603 0-75.2517 25.973-88.0941 62.229zm86.2089-60.897c27.929 0 52.934 12.522 69.706 32.262l1.524-1.295c-17.136-20.168-42.689-32.967-71.23-32.967zm71.07 32.413c14.002-10.561 31.426-16.822 50.316-16.822v-2c-19.339 0-37.184 6.412-51.52 17.225zm50.316-16.822c46.191 0 83.636 37.445 83.636 83.636h2c0-47.295-38.341-85.636-85.636-85.636zm83.636 83.636c0 46.191-37.445 83.636-83.636 83.636v2c47.295 0 85.636-38.34 85.636-85.636zm-83.636 83.636h-121.386v2h121.386zm-121.386 0h-135.8635v2h135.8635z" fill="#000" mask="url(#a)"/><path d="m.0565696 439.328c-5.0113496 8.909-12.0272696 26.727 0 26.727 12.0272304 0 5.0113504-17.818 0-26.727z" stroke="#000"/><path d="m45.1178 474.408c-5.0114 8.909-12.0272 26.727 0 26.727s5.0113-17.818 0-26.727z" fill="#7bf5f6"/><path d="m48.4587 475.521c-5.0114 8.909-12.0273 26.727 0 26.727 12.0272 0 5.0113-17.818 0-26.727z" stroke="#000"/><path d="m106.368 442.112c-5.012 8.909-12.0276 26.727 0 26.727 12.027 0 5.011-17.818 0-26.727z" fill="#7bf5f6"/><path d="m109.708 443.226c-5.011 8.909-12.0267 26.727 0 26.727 12.028 0 5.012-17.818 0-26.727z" stroke="#000"/><path d="m160.936 474.408c-5.012 8.909-12.028 26.727 0 26.727 12.027 0 5.011-17.818 0-26.727z" fill="#7bf5f6"/><path d="m164.276 475.521c-5.011 8.909-12.027 26.727 0 26.727 12.028 0 5.012-17.818 0-26.727z" stroke="#000"/><path d="m221.072 440.999c-5.012 8.909-12.027 26.727 0 26.727s5.011-17.818 0-26.727z" fill="#7bf5f6"/><path d="m224.413 442.112c-5.012 8.909-12.028 26.727 0 26.727 12.027 0 5.011-17.818 0-26.727z" stroke="#000"/></svg>