<svg fill="none" height="504" viewBox="0 0 375 504" width="375" xmlns="http://www.w3.org/2000/svg" xmlns:xlink="http://www.w3.org/1999/xlink"><mask id="a" fill="#fff"><path clip-rule="evenodd" d="m158.033 191.676c-11.046.002-20.002-8.951-20.004-19.996l-.025-138.6726c-.002-11.0457 8.95-20.0016 19.996-20.0037 11.046-.002 20.002 8.9506 20.004 19.9963l.025 138.672c.002 11.046-8.95 20.002-19.996 20.004zm265.967 149.812c0 11.046-8.954 20-20 20h-77.127c-11.046 0-20-8.954-20-20s8.954-20 20-20h77.127c11.046 0 20 8.954 20 20zm-285.967 240.129c0 11.046 8.954 20 20 20s20-8.954 20-20v-91.768c0-11.046-8.954-20-20-20s-20 8.954-20 20zm130.623-350.699c-8.169-7.434-8.765-20.084-1.331-28.253l82.63-90.796c7.435-8.169 20.084-8.765 28.253-1.33 8.17 7.434 8.765 20.083 1.331 28.253l-82.63 90.796c-7.435 8.169-20.084 8.765-28.253 1.33zm-275.54591-94.897c-8.25569-7.339-20.89709-6.595-28.23549 1.661-7.3383 8.255-6.5947 20.897 1.6609 28.235l66.7335 59.319c8.2556 7.338 20.8971 6.594 28.2355-1.661 7.3383-8.256 6.5947-20.897-1.6609-28.236zm80.77451 297.4c7.7069 7.913 7.54 20.575-.3727 28.282l-68.95142 67.158c-7.91272 7.707-20.57488 7.54-28.28178-.373s-7.5401-20.575.3726-28.282l68.9515-67.158c7.9127-7.706 20.5749-7.54 28.2818.373zm257.1884 100.305c7.735 7.885 20.398 8.008 28.283.273 7.886-7.735 8.008-20.398.273-28.283l-70.961-72.344c-7.735-7.886-20.397-8.008-28.283-.273-7.885 7.735-8.008 20.397-.273 28.283zm-298.3319-192.238c.0778 11.045-8.8132 20.062-19.8586 20.14l-98.6014.694c-11.0454.078-20.0621-8.813-20.1401-19.858-.078-11.046 8.813-20.063 19.8584-20.141l98.6014-.694c11.0454-.078 20.0625 8.813 20.1403 19.859zm133.0909 105.912c64.957 0 117.615-52.658 117.615-117.615 0-64.958-52.658-117.616-117.615-117.616s-117.6148 52.658-117.6148 117.616c0 64.957 52.6578 117.615 117.6148 117.615z" fill="#fff" fill-rule="evenodd"/></mask><g stroke="#ffdb7e" stroke-linecap="round" stroke-width="40"><path d="m413 349.488h-77.127"/><path d="m167.029 179.676-.025-138.6723"/><path d="m167.033 589.617v-91.768"/><path d="m291.117 224.126 82.63-90.796"/><path d="m-11.177 158.969 66.7334 59.319"/><path d="m68.5574 455.376-68.951444 67.158"/><path d="m354.351 527.721-70.961-72.344"/><path d="m21.7417 349.628-98.6014.695"/></g><path clip-rule="evenodd" d="m166.033 196.676c-11.046.002-20.002-8.951-20.004-19.996l-.025-138.6726c-.002-11.0457 8.95-20.0016 19.996-20.0037 11.046-.002 20.002 8.9506 20.004 19.9963l.025 138.672c.002 11.046-8.95 20.002-19.996 20.004zm265.967 149.812c0 11.046-8.954 20-20 20h-77.127c-11.046 0-20-8.954-20-20s8.954-20 20-20h77.127c11.046 0 20 8.954 20 20zm-285.967 240.129c0 11.046 8.954 20 20 20s20-8.954 20-20v-91.768c0-11.046-8.954-20-20-20s-20 8.954-20 20zm130.623-350.699c-8.169-7.434-8.765-20.084-1.331-28.253l82.63-90.796c7.435-8.169 20.084-8.765 28.253-1.33 8.17 7.434 8.765 20.083 1.331 28.253l-82.63 90.796c-7.435 8.169-20.084 8.765-28.253 1.33zm-275.54591-94.897c-8.25566-7.339-20.89709-6.595-28.23549 1.661-7.3383 8.255-6.5947 20.897 1.6609 28.235l66.7335 59.319c8.2556 7.338 20.8971 6.594 28.2355-1.661 7.3383-8.256 6.5947-20.897-1.6609-28.236zm80.77451 297.4c7.7069 7.913 7.54 20.575-.3727 28.282l-68.9514 67.158c-7.91274 7.707-20.57495 7.54-28.2818-.373-7.7069-7.913-7.5401-20.575.3726-28.282l68.9515-67.158c7.9127-7.706 20.5749-7.54 28.2818.373zm257.1884 100.305c7.735 7.885 20.398 8.008 28.283.273 7.886-7.735 8.008-20.398.273-28.283l-70.961-72.344c-7.735-7.886-20.397-8.008-28.283-.273-7.885 7.735-8.008 20.397-.273 28.283zm-298.3319-192.238c.0778 11.045-8.8132 20.062-19.8586 20.14l-98.6014.694c-11.0454.078-20.0626-8.813-20.1403-19.858-.0778-11.046 8.8132-20.063 19.8586-20.141l98.6014-.694c11.0454-.078 20.0625 8.813 20.1403 19.859zm133.0909 105.912c64.957 0 117.615-52.658 117.615-117.615s-52.658-117.616-117.615-117.616-117.6148 52.659-117.6148 117.616 52.6578 117.615 117.6148 117.615z" fill="#ffdb7e" fill-rule="evenodd"/><path d="m138.029 171.68 1-.001zm20.004 19.996v1zm-20.029-158.6686-1 .0002zm19.996-20.0037v1zm20.004 19.9963 1-.0002zm.025 138.672h-1zm89.296 30.993.74.673zm1.331 28.253.673-.739zm81.299-119.049-.739-.673zm28.253-1.33.673-.74zm1.331 28.253-.74-.673zm-82.63 90.796.739.673zm-332.0344-91.906-.7474-.665zm28.23549-1.661-.66437.747zm-26.57459 29.896-.6643.748zm66.7335 59.319.6644-.748zm26.5746-29.897-.6644.748zm13.6683 266.364.6977.716zm.3727-28.282.7163-.698zm-69.32412 95.44-.69773-.717zm-28.28178-.373.7163-.698zm.3726-28.282.6978.717zm68.9515-67.158-.6978-.716zm313.7532 100.951.701.714zm-28.283-.273.714-.7zm28.556-28.01-.714.7zm-70.961-72.344.714-.7zm-28.283-.273.7.714zm-.273 28.283.714-.7zm-247.2295-99.754.007 1zm19.8586-20.14-.9999.007zm-118.46 20.834-.007-1zm-20.1401-19.858-1 .007zm19.8584-20.141-.007-1zm98.6014-.694.007 1zm124.4282-149.949c.002 11.598 9.406 20.998 21.004 20.996v-2c-10.494.002-19.002-8.503-19.004-18.997zm-.025-138.6724.025 138.6724 2-.001-.025-138.6718zm20.996-21.0039c-11.598.0022-20.999 9.4059-20.996 21.0039l2-.0004c-.002-10.4934 8.503-19.0015 18.996-19.0035zm21.004 20.9961c-.003-11.598-9.406-20.9982-21.004-20.9961v2c10.493-.0019 19.002 8.5031 19.004 18.9965zm.025 138.6722-.025-138.6722-2 .0004.025 138.6718zm-20.996 21.004c11.598-.002 20.998-9.406 20.996-21.004h-2c.002 10.494-8.503 19.002-18.996 19.004zm245.967 169.812c11.598 0 21-9.402 21-21h-2c0 10.493-8.507 19-19 19zm-77.127 0h77.127v-2h-77.127zm-21-21c0 11.598 9.402 21 21 21v-2c-10.494 0-19-8.507-19-19zm21-21c-11.598 0-21 9.402-21 21h2c0-10.493 8.506-19 19-19zm77.127 0h-77.127v2h77.127zm21 21c0-11.598-9.402-21-21-21v2c10.493 0 19 8.507 19 19zm-266.967 259.129c-10.493 0-19-8.507-19-19h-2c0 11.598 9.402 21 21 21zm19-19c0 10.493-8.507 19-19 19v2c11.598 0 21-9.402 21-21zm0-91.768v91.768h2v-91.768zm-19-19c10.493 0 19 8.507 19 19h2c0-11.598-9.402-21-21-21zm-19 19c0-10.493 8.507-19 19-19v-2c-11.598 0-21 9.402-21 21zm0 91.768v-91.768h-2v91.768zm127.553-379.625c-7.806 8.578-7.181 21.859 1.397 29.666l1.346-1.479c-7.761-7.063-8.327-19.08-1.264-26.841zm82.63-90.796-82.63 90.796 1.479 1.346 82.63-90.796zm29.665-1.397c-8.577-7.806-21.859-7.181-29.665 1.397l1.479 1.346c7.063-7.761 19.079-8.326 26.84-1.264zm1.397 29.666c7.806-8.578 7.181-21.86-1.397-29.666l-1.346 1.479c7.761 7.063 8.327 19.08 1.264 26.841zm-82.63 90.796 82.63-90.796-1.479-1.346-82.63 90.796zm-29.665 1.397c8.577 7.806 21.859 7.18 29.665-1.397l-1.479-1.346c-7.063 7.76-19.079 8.326-26.84 1.264zm-302.361-93.312c6.9715-7.843 18.9809-8.549 26.82372-1.578l1.32873-1.495c-8.66845-7.705-21.94195-6.924-29.64725 1.744zm1.5779 26.824c-7.8429-6.972-8.5493-18.981-1.5779-26.824l-1.4948-1.329c-7.7053 8.669-6.9245 21.942 1.744 29.648zm66.7335 59.318-66.7335-59.318-1.3287 1.495 66.7334 59.318zm26.8236-1.578c-6.9714 7.843-18.9808 8.55-26.8236 1.578l-1.3288 1.495c8.6685 7.705 21.942 6.925 29.6473-1.744zm-1.5778-26.823c7.8428 6.971 8.5493 18.981 1.5778 26.823l1.4949 1.329c7.7052-8.668 6.9244-21.942-1.744-29.647zm-66.73348-59.319 66.73348 59.319 1.3287-1.495-66.73345-59.319zm81.76388 325.651c8.3084-8.092 8.4836-21.387.3913-29.696l-1.4327 1.396c7.3216 7.517 7.1631 19.546-.354 26.868zm-68.9514 67.158 68.9514-67.158-1.3954-1.432-68.95145 67.157zm-29.6959-.391c8.0922 8.308 21.38755 8.483 29.69591.391l-1.39546-1.433c-7.51709 7.322-19.54615 7.163-26.86775-.354zm.3913-29.696c-8.3083 8.092-8.4835 21.388-.3913 29.696l1.4327-1.396c-7.3215-7.517-7.163-19.546.3541-26.867zm68.9514-67.158-68.9514 67.158 1.3955 1.433 68.9514-67.158zm29.6959.391c-8.0922-8.308-21.3875-8.483-29.6959-.391l1.3955 1.433c7.5171-7.322 19.5461-7.163 26.8677.354zm284.0551 100.562c-7.491 7.348-19.521 7.232-26.869-.259l-1.428 1.4c8.122 8.28 21.418 8.408 29.698.287zm.259-26.869c7.348 7.491 7.232 19.521-.259 26.869l1.401 1.428c8.279-8.122 8.408-21.418.286-29.697zm-70.961-72.344 70.961 72.344 1.428-1.4-70.961-72.344zm-26.869-.259c7.492-7.348 19.521-7.232 26.869.259l1.428-1.4c-8.122-8.28-21.417-8.409-29.697-.287zm-.259 26.869c-7.348-7.492-7.232-19.521.259-26.869l-1.4-1.428c-8.28 8.122-8.408 21.417-.287 29.697zm70.961 72.344-70.961-72.344-1.428 1.4 70.961 72.344zm-318.8975-170.398c11.5977-.082 20.9333-9.55 20.8516-21.148l-1.9999.015c.0739 10.493-8.3726 19.059-18.8658 19.133zm-98.6014.694 98.6014-.694-.0141-2-98.6013.694zm-21.1471-20.851c.081 11.597 9.5495 20.933 21.1472 20.851l-.0141-2c-10.4932.074-19.0591-8.372-19.1331-18.865zm20.8514-21.148c-11.5977.082-20.9334 9.55-20.8514 21.148l2-.014c-.074-10.494 8.3723-19.06 18.8655-19.134zm98.6014-.694-98.6014.694.0141 2 98.6013-.694zm21.1473 20.851c-.0817-11.597-9.5497-20.933-21.1473-20.851l.014 2c10.4932-.074 19.0595 8.372 19.1334 18.866zm248.7059-11.695c0 64.404-52.21 116.615-116.615 116.615v2c65.51 0 118.615-53.106 118.615-118.615zm-116.615-116.616c64.405 0 116.615 52.211 116.615 116.616h2c0-65.51-53.105-118.616-118.615-118.616zm-116.6148 116.616c0-64.405 52.2108-116.616 116.6148-116.616v-2c-65.509 0-118.6148 53.106-118.6148 118.616zm116.6148 116.615c-64.404 0-116.6148-52.211-116.6148-116.615h-2c0 65.509 53.1058 118.615 118.6148 118.615z" fill="#000" mask="url(#a)"/><path d="m204.351 115.261c9.8-2.227 10.023-12.436 8.909-17.2613 4.269.3712 14.923 1.4477 23.387 2.7843-1.337 11.582 2.784 11.879 5.011 10.579l-16.704 23.387c-5.383-4.641-17.039-15.034-20.603-19.489z" fill="#fedea3"/><circle cx="229.965" cy="67.3748" fill="#302f41" r="30.6249"/><circle cx="226.624" cy="81.852" fill="#fedea3" r="22.8295"/><path clip-rule="evenodd" d="m258.256 24.5148c1.481-2.4402 2.334-5.3041 2.334-8.3671 0-8.91814-7.23-16.1477-16.148-16.1477s-16.148 7.22956-16.148 16.1477c0 .1985.004.3962.011.5929-12.859 3.6321-22.283 15.4531-22.283 29.4752 0 16.9136 13.711 30.6249 30.625 30.6249 16.913 0 30.625-13.7113 30.625-30.6249 0-8.4803-3.447-16.1554-9.016-21.701z" fill="#302f41" fill-rule="evenodd"/><path d="m262.13 223.283-6.681-30.625-57.353-3.897-9.465 11.136-7.239 13.364c-3.155-.557-13.92-4.455-31.739-15.591-22.272-13.921-40.647-11.136-42.874 0-2.228 11.136-4.455 16.148 38.977 44.545 43.431 28.398 109.693 20.046 125.84 20.046 12.918 0 8.353 8.166 4.455 12.25 3.898 16.333 12.918 47.218 17.818 40.09 6.125-8.909 27.841-42.318 29.511-66.818 1.337-19.6-40.276-24.5-61.25-24.5z" fill="#3d3c54"/><path d="m138.09 199.34c4.826 2.228 16.036 7.128 22.273 8.909 7.795 2.228 27.284 12.25 36.75 22.273" stroke="#33384c"/><path d="m250.037 244.442c-11.136-.445-41.39-9.465-55.125-13.92-11.879 5.383-30.402 16.704-9.466 18.932 26.171 2.784 95.216 30.068 94.102 17.818-1.113-12.25-15.591-22.273-29.511-22.83z" fill="#eec68e"/><path d="m276.181 145.886c.742 15.405 1.781 46.884 0 49.557-2.228 3.34-13.364 25.613-21.716 31.181-6.682 4.455-8.724 14.106-8.909 18.375-2.992 1.197-7.849 2.522-12.255 2.387.812 3.364.522 5.965-4.45 5.965-7.127 0-14.848-10.393-17.818-15.59-2.042-3.341-7.461-11.025-12.807-15.034-6.681-5.012-16.704-13.921-17.818-28.955-1.113-15.034-1.67-25.057 0-35.636 1.337-8.464 9.466-3.527 13.364 0-.186 12.435 1.113 38.643 7.795 43.988 6.495 5.196 20.396 20.828 26.52 30.405 4.778-4.443 12.091-8.605 14.685-13.143 4.454-7.796 11.693-21.716 16.704-25.614v-40.091l16.148-8.352z" fill="#f3cf9b"/><path d="m224.397 132.522-20.603-18.931c-2.412 2.227-9.02 7.127-16.147 8.909-8.909 2.227-13.364 10.022-13.364 17.818.557 7.795-2.227 17.818-2.784 23.386 1.782.891 7.053-1.485 9.466-2.784 2.97-.928 9.8-2.227 13.364 0-1.337 11.582 1.113 30.068 4.454 37.307 3.898-1.3 14.589-3.119 28.398 0 13.809 3.118 23.943 1.484 28.954-1.114l3.341-3.341v-40.091l18.932-7.238c-.557-.557-2.116-4.9-3.898-17.818-1.782-12.919-12.25-17.262-17.261-17.819l-17.818-1.113z" fill="#302f41"/></svg>